<?xml version="1.0" encoding="UTF-8" standalone="no" ?>
<!DOCTYPE svg PUBLIC "-//W3C//DTD SVG 1.1//EN" "http://www.w3.org/Graphics/SVG/1.1/DTD/svg11.dtd">
<svg xmlns="http://www.w3.org/2000/svg" xmlns:xlink="http://www.w3.org/1999/xlink" version="1.1" width="650" height="650" viewBox="0 0 650 650" xml:space="preserve">
<desc>Generated by Tnagele Font Awesome 3</desc>
<defs>
</defs>
<g transform="matrix(1 0 0 1 326.5 326.5)"  >
<path style="stroke: rgb(255,255,255); stroke-width: 4; stroke-dasharray: none; stroke-linecap: butt; stroke-dashoffset: 0; stroke-linejoin: miter; stroke-miterlimit: 4; fill: rgb(0,0,0); fill-rule: nonzero; opacity: 1;"  transform=" translate(-256, -254.5)" d="M 504 256 C 504 119 393 8 256 8 S 8 119 8 256 c 0 123.78 90.69 226.38 209.25 245 V 327.69 h -63 V 256 h 63 v -54.64 c 0 -62.15 37 -96.48 93.67 -96.48 c 27.14 0 55.52 4.84 55.52 4.84 v 61 h -31.28 c -30.8 0 -40.41 19.12 -40.41 38.73 V 256 h 68.78 l -11 71.69 h -57.78 V 501 C 413.31 482.38 504 379.78 504 256 z" stroke-linecap="round" />
</g>
</svg>